<svg width="514" height="442" viewBox="0 0 514 442" fill="none" xmlns="http://www.w3.org/2000/svg">
<path d="M127.717 286.116H130.125V296.608C130.125 306.799 134.857 311.314 143.373 311.314C151.889 311.314 155.803 306.799 155.803 296.608V286.073H158.125V280.526H145.394V286.202H147.717V295.318C147.717 302.37 146.039 303.746 143.373 303.746C140.706 303.746 139.072 302.37 139.072 295.318V286.073H141.394V280.526H127.717V286.116Z" fill="black"/>
<path d="M159.429 294.673H161.751V302.327C161.88 307.831 162.096 311.357 168.547 311.357C169.536 311.357 172.461 311.056 173.751 310.54V305.036C172.934 305.38 171.601 305.767 171.042 305.767C169.364 305.767 169.665 303.789 169.665 302.327V294.673H173.751V289.083H169.665V282.59L161.751 285.127V289.083H159.429V294.673Z" fill="black"/>
<path d="M177.764 295.877C179.398 294.974 181.634 293.899 184.172 293.899C186.495 293.899 188.258 294.372 188.258 296.307V297.812C188.043 297.554 186.538 296.307 184 296.307C179.14 296.307 175.054 299.36 175.054 304.219C175.054 309.207 179.441 311.4 183.527 311.4C185.075 311.4 187.742 310.841 189.333 308.648L190.366 310.583H199.57V305.079H196.989V296.694C196.989 289.771 190.495 287.836 185.333 287.836C181.376 287.836 177.678 289.857 175.957 290.889L177.764 295.877ZM185.505 305.81C184.215 305.81 183.226 304.993 183.226 303.789C183.226 302.456 184 301.51 185.721 301.51C187.527 301.51 188.129 302.542 188.258 302.757V304.391C187.871 305.036 186.796 305.81 185.505 305.81Z" fill="black"/>
<path d="M214.779 304.95H211.682V298.887C211.682 297.038 212.198 294.888 214.392 294.888C216.93 294.888 216.93 297.425 216.93 298.887V310.583H227.983V304.95H225.962V297.769C225.962 293.254 225.102 288.309 218.435 288.309C215.295 288.309 212.155 290.975 211.682 291.749V278.333H201.274V283.923H203.08V304.95H201.274V310.583H214.779V304.95Z" fill="black"/>
<path d="M263.215 299.704C262.828 300.134 259.989 303.918 256.376 303.918C252.29 303.918 250.097 300.091 250.097 295.834C250.097 291.147 252.118 287.32 255.215 287.32C258.269 287.32 259.645 289.943 259.774 292.738H267.473V280.526H260.72L259.731 282.934C259.344 282.418 257.408 280.01 253.107 280.01C247.473 280.01 240.032 285.944 240.032 295.834C240.032 305.423 246.097 311.271 255.215 311.271C260.849 311.271 265.322 308.433 268.247 305.208L263.215 299.704Z" fill="black"/>
<path d="M281.346 311.142C287.883 311.142 293.174 307.057 293.088 299.919C292.959 292.738 287.926 288.653 281.131 288.567C275.195 288.567 269.389 292.566 269.346 299.747C269.26 307.358 275.195 311.142 281.346 311.142ZM281.346 305.638C279.539 305.638 278.163 303.316 278.163 299.79C278.163 296.651 279.453 294.157 281.131 294.157C283.152 294.2 284.271 296.694 284.271 299.919C284.271 303.144 283.195 305.638 281.346 305.638Z" fill="black"/>
<path d="M294.215 294.759H296.022V300.693C296.022 307.831 298.172 311.185 304.667 311.185C308.323 311.185 309.828 308.949 310.775 307.874L311.936 310.583H320.065V304.864H317.957V289.083H306.818V294.759H309.656V301.596C309.656 303.531 308.452 304.864 306.947 304.864C305.183 304.864 304.624 303.144 304.624 299.446V289.083H294.215V294.759Z" fill="black"/>
<path d="M335.027 304.95H331.93V298.844C331.93 296.995 332.446 294.845 334.64 294.845C337.177 294.845 337.048 297.382 337.048 298.844V310.583H347.887V304.95H345.865V297.769C345.865 293.254 344.747 288.309 338.08 288.309C335.371 288.309 333.392 289.728 331.93 291.749L330.941 289.083H321.779V294.673H323.586V304.95H321.779V310.583H335.027V304.95Z" fill="black"/>
<path d="M349.197 294.673H351.52V302.327C351.649 307.831 351.864 311.357 358.315 311.357C359.305 311.357 362.229 311.056 363.52 310.54V305.036C362.702 305.38 361.369 305.767 360.81 305.767C359.132 305.767 359.434 303.789 359.434 302.327V294.673H363.52V289.083H359.434V282.59L351.52 285.127V289.083H349.197V294.673Z" fill="black"/>
<path d="M377.811 301.252L375.016 294.544H377.037V289.083H363.79V294.587H365.553L373.94 310.497L373.338 312.303C372.908 313.593 371.919 314.84 370.585 314.582C369.682 314.41 368.822 313.765 368.091 313.12L364.865 318.194C366.155 319.312 367.833 320.215 370.069 320.344C376.306 320.387 378.069 316.947 379.317 314.281L387.489 294.415H389.553V289.083H378.628V294.544H380.607L377.811 301.252Z" fill="black"/>
<path d="M144.491 351.792C152.792 351.792 156.19 349.126 156.19 343.063C156.19 338.892 153.609 336.613 150.513 335.753C153.738 334.463 154.728 332.7 154.728 329.088C154.728 324.401 151.33 321.735 144.19 321.735H128.147V327.282H130.642V346.202H128.147V351.792H144.491ZM142.254 327.411C143.889 327.411 145.093 328.572 145.093 330.55C145.093 332.614 144.448 333.861 142.168 333.861H139.545V327.411H142.254ZM139.545 346.202V338.72H142.857C145.222 338.72 146.469 340.311 146.469 342.504C146.469 344.826 144.792 346.202 142.986 346.202H139.545Z" fill="black"/>
<path d="M175.653 344.654C173.331 346.589 171.094 346.718 169.632 346.718C166.019 346.718 165.46 344.353 165.202 343.192H178.75C179.653 340.741 179.18 337.43 178.664 335.925C177.417 332.313 173.503 329.69 168.384 329.69C161.89 329.69 156.815 333.861 156.815 340.913C156.815 349.169 162.836 352.566 168.169 352.566C172.643 352.566 176.083 351.577 179.266 348.825L175.653 344.654ZM168.643 335.495C171.395 335.495 171.782 337.301 171.825 338.935H165.331C165.417 337.86 166.019 335.495 168.643 335.495Z" fill="black"/>
<path d="M198.965 344.654C196.642 346.589 194.406 346.718 192.943 346.718C189.33 346.718 188.771 344.353 188.513 343.192H202.062C202.965 340.741 202.492 337.43 201.976 335.925C200.728 332.313 196.814 329.69 191.696 329.69C185.201 329.69 180.126 333.861 180.126 340.913C180.126 349.169 186.148 352.566 191.481 352.566C195.954 352.566 199.395 351.577 202.578 348.825L198.965 344.654ZM191.954 335.495C194.707 335.495 195.094 337.301 195.137 338.935H188.642C188.728 337.86 189.33 335.495 191.954 335.495Z" fill="black"/>
<path d="M216.341 351.792V346.159H214.749V342.547L216.255 341.515L219.524 346.159H217.717V351.792H230.448V346.159H228.298L222.491 337.86L225.416 336.011H228.728V330.335H216.685V336.011H219.782L214.792 338.978V319.542H204.857V325.175H206.62V346.202H204.857V351.792H216.341Z" fill="black"/>
<path d="M250.418 344.654C248.096 346.589 245.859 346.718 244.397 346.718C240.784 346.718 240.225 344.353 239.966 343.192H253.515C254.418 340.741 253.945 337.43 253.429 335.925C252.182 332.313 248.268 329.69 243.149 329.69C236.655 329.69 231.579 333.861 231.579 340.913C231.579 349.169 237.601 352.566 242.934 352.566C247.407 352.566 250.848 351.577 254.031 348.825L250.418 344.654ZM243.407 335.495C246.16 335.495 246.547 337.301 246.59 338.935H240.096C240.182 337.86 240.784 335.495 243.407 335.495Z" fill="black"/>
<path d="M273.73 344.654C271.407 346.589 269.17 346.718 267.708 346.718C264.095 346.718 263.536 344.353 263.278 343.192H276.826C277.73 340.741 277.256 337.43 276.74 335.925C275.493 332.313 271.579 329.69 266.461 329.69C259.966 329.69 254.891 333.861 254.891 340.913C254.891 349.169 260.912 352.566 266.246 352.566C270.719 352.566 274.16 351.577 277.342 348.825L273.73 344.654ZM266.719 335.495C269.472 335.495 269.859 337.301 269.902 338.935H263.407C263.493 337.86 264.095 335.495 266.719 335.495Z" fill="black"/>
<path d="M279.063 360.564H291.923V354.931H289.6V350.588C289.901 350.846 291.622 352.265 295.192 352.265C300.74 352.265 304.998 348.051 304.998 341.214C304.998 335.108 301.557 329.948 294.848 329.948C292.267 329.948 290.46 331.195 289.643 331.797L288.912 330.292H279.063V336.011H280.869V354.931H279.063V360.564ZM295.751 341.3C295.751 344.568 294.503 346.675 292.697 346.675C291.063 346.675 289.6 344.439 289.6 341.515C289.428 338.118 290.977 336.011 292.654 336.011C294.546 336.011 295.751 338.72 295.751 341.3Z" fill="black"/>
<path d="M324.469 344.654C322.146 346.589 319.91 346.718 318.447 346.718C314.834 346.718 314.275 344.353 314.017 343.192H327.566C328.469 340.741 327.996 337.43 327.48 335.925C326.232 332.313 322.318 329.69 317.2 329.69C310.705 329.69 305.63 333.861 305.63 340.913C305.63 349.169 311.652 352.566 316.985 352.566C321.458 352.566 324.899 351.577 328.082 348.825L324.469 344.654ZM317.458 335.495C320.211 335.495 320.598 337.301 320.641 338.935H314.146C314.232 337.86 314.834 335.495 317.458 335.495Z" fill="black"/>
<path d="M341.974 346.159H339.823V341.73C339.823 337.946 342.017 336.957 345.888 336.957V329.518C341.458 329.518 340.339 330.98 339.221 333.044L337.931 330.292H329.845V335.882H331.694V346.159H329.802V351.792H341.974V346.159Z" fill="black"/>
<path d="M352.557 351.792L352.944 349.169C353.977 350.803 356.428 352.308 359.525 352.308C363.697 352.308 367.525 349.9 367.525 345.858C367.525 341.343 363.869 340.096 360.6 338.978C357.848 338.032 355.31 337.516 355.31 336.312C355.31 335.237 356.084 334.764 356.987 334.764C359.138 334.764 361.374 336.226 361.374 338.032H366.966V330.292H361.675L361.331 333.13C360.428 331.281 357.848 329.776 354.923 329.776C351.869 329.776 347.353 331.625 347.353 336.011C347.353 340.053 350.149 341.859 353.073 342.891C356.17 343.966 359.396 344.181 359.396 345.471C359.396 346.675 358.364 346.933 357.503 346.933C356.213 346.933 352.944 346.331 352.944 344.052H347.181V351.792H352.557Z" fill="black"/>
<path d="M200.419 385.661H198.412L193.337 369.379H182.326V373.077H183.502L179.631 385.661H177.681V389.417H186.799V385.661H184.563L185.165 383.712H191.043L191.645 385.661H188.921V389.417H200.419V385.661ZM188.09 374.08L189.982 380.272H186.226L188.09 374.08Z" fill="black"/>
<path d="M204.871 389.417L205.129 387.668C205.817 388.757 207.451 389.761 209.516 389.761C212.297 389.761 214.849 388.155 214.849 385.461C214.849 382.451 212.412 381.619 210.233 380.874C208.398 380.243 206.706 379.899 206.706 379.097C206.706 378.38 207.222 378.065 207.824 378.065C209.258 378.065 210.749 379.039 210.749 380.243H214.476V375.083H210.95L210.72 376.975C210.118 375.743 208.398 374.739 206.448 374.739C204.412 374.739 201.401 375.972 201.401 378.896C201.401 381.591 203.265 382.795 205.215 383.483C207.279 384.199 209.43 384.343 209.43 385.203C209.43 386.005 208.742 386.177 208.168 386.177C207.308 386.177 205.129 385.776 205.129 384.257H201.286V389.417H204.871Z" fill="black"/>
<path d="M219.432 389.417L219.69 387.668C220.378 388.757 222.012 389.761 224.077 389.761C226.858 389.761 229.41 388.155 229.41 385.461C229.41 382.451 226.973 381.619 224.794 380.874C222.959 380.243 221.267 379.899 221.267 379.097C221.267 378.38 221.783 378.065 222.385 378.065C223.819 378.065 225.31 379.039 225.31 380.243H229.037V375.083H225.51L225.281 376.975C224.679 375.743 222.959 374.739 221.009 374.739C218.973 374.739 215.962 375.972 215.962 378.896C215.962 381.591 217.826 382.795 219.776 383.483C221.84 384.199 223.991 384.343 223.991 385.203C223.991 386.005 223.303 386.177 222.729 386.177C221.869 386.177 219.69 385.776 219.69 384.257H215.847V389.417H219.432Z" fill="black"/>
<path d="M238.294 389.789C242.652 389.789 246.179 387.066 246.122 382.307C246.036 377.52 242.681 374.797 238.15 374.739C234.193 374.739 230.322 377.405 230.294 382.193C230.236 387.267 234.193 389.789 238.294 389.789ZM238.294 386.12C237.089 386.12 236.172 384.572 236.172 382.221C236.172 380.129 237.032 378.466 238.15 378.466C239.498 378.495 240.243 380.157 240.243 382.307C240.243 384.457 239.527 386.12 238.294 386.12Z" fill="black"/>
<path d="M260.981 381.562V375.083H257.597L257.11 376.459C256.622 375.886 255.476 374.825 253.526 374.825C249.855 374.825 246.472 377.09 246.472 382.164C246.472 387.267 250.142 389.818 254.357 389.818C257.454 389.818 260.035 388.356 261.382 386.894L258.859 383.97C257.913 385.002 256.909 385.633 255.39 385.604C253.554 385.575 252.436 384.085 252.436 382.221C252.436 380.358 253.268 378.552 254.959 378.552C256.278 378.552 256.709 380.186 256.766 381.562H260.981Z" fill="black"/>
<path d="M263.196 370.898C263.196 372.274 264.486 373.793 266.293 373.793C268.329 373.793 269.447 372.475 269.447 370.898C269.447 369.579 268.271 367.974 266.293 367.974C264.286 367.974 263.196 369.579 263.196 370.898ZM270.422 385.661H269.045V375.083H262.393V378.81H263.597V385.661H262.393V389.417H270.422V385.661Z" fill="black"/>
<path d="M273.377 379.613C274.467 379.011 275.958 378.294 277.65 378.294C279.198 378.294 280.374 378.609 280.374 379.899V380.903C280.23 380.731 279.227 379.899 277.535 379.899C274.295 379.899 271.571 381.935 271.571 385.174C271.571 388.499 274.496 389.961 277.22 389.961C278.252 389.961 280.03 389.589 281.091 388.127L281.779 389.417H287.915V385.747H286.195V380.157C286.195 375.542 281.865 374.252 278.424 374.252C275.786 374.252 273.32 375.599 272.173 376.287L273.377 379.613ZM278.539 386.235C277.678 386.235 277.019 385.69 277.019 384.887C277.019 383.999 277.535 383.368 278.682 383.368C279.886 383.368 280.288 384.056 280.374 384.199V385.289C280.116 385.719 279.399 386.235 278.539 386.235Z" fill="black"/>
<path d="M288.764 378.81H290.312V383.913C290.398 387.582 290.542 389.933 294.843 389.933C295.502 389.933 297.452 389.732 298.312 389.388V385.719C297.768 385.948 296.879 386.206 296.506 386.206C295.388 386.206 295.588 384.887 295.588 383.913V378.81H298.312V375.083H295.588V370.755L290.312 372.446V375.083H288.764V378.81Z" fill="black"/>
<path d="M300.27 370.898C300.27 372.274 301.561 373.793 303.367 373.793C305.403 373.793 306.521 372.475 306.521 370.898C306.521 369.579 305.346 367.974 303.367 367.974C301.36 367.974 300.27 369.579 300.27 370.898ZM307.496 385.661H306.12V375.083H299.467V378.81H300.672V385.661H299.467V389.417H307.496V385.661Z" fill="black"/>
<path d="M316.531 389.789C320.889 389.789 324.416 387.066 324.359 382.307C324.273 377.52 320.918 374.797 316.387 374.739C312.43 374.739 308.559 377.405 308.531 382.193C308.473 387.267 312.43 389.789 316.531 389.789ZM316.531 386.12C315.326 386.12 314.409 384.572 314.409 382.221C314.409 380.129 315.269 378.466 316.387 378.466C317.735 378.495 318.48 380.157 318.48 382.307C318.48 384.457 317.764 386.12 316.531 386.12Z" fill="black"/>
<path d="M334.229 385.661H332.164V381.591C332.164 380.358 332.508 378.925 333.971 378.925C335.662 378.925 335.576 380.616 335.576 381.591V389.417H342.802V385.661H341.454V380.874C341.454 377.864 340.709 374.567 336.264 374.567C334.458 374.567 333.139 375.513 332.164 376.861L331.505 375.083H325.397V378.81H326.601V385.661H325.397V389.417H334.229V385.661Z" fill="black"/>
<path fill-rule="evenodd" clip-rule="evenodd" d="M117.6 0.625L392.305 0.625L392.305 11.375L123.999 11.375L13.0831 215.688L125.577 433.534L121.695 435.537L121.695 441.375L117.524 441.375L0.917053 215.562L117.6 0.625Z" fill="#FFCB00"/>
<path fill-rule="evenodd" clip-rule="evenodd" d="M396.4 441.375L121.695 441.375L121.695 430.625L390.002 430.625L500.917 226.312L388.423 8.46572L392.305 6.46251L392.305 0.62502L396.476 0.62502L513.083 226.438L396.4 441.375Z" fill="#FFCB00"/>
<path fill-rule="evenodd" clip-rule="evenodd" d="M257.806 111.95C270.229 111.95 279.312 102.54 279.312 92.1208C279.312 81.7011 270.229 72.2916 257.806 72.2916C245.383 72.2916 236.301 81.7011 236.301 92.1208C236.301 102.54 245.383 111.95 257.806 111.95ZM257.806 122.7C275.622 122.7 290.064 109.009 290.064 92.1208C290.064 75.2324 275.622 61.5416 257.806 61.5416C239.991 61.5416 225.548 75.2324 225.548 92.1208C225.548 109.009 239.991 122.7 257.806 122.7Z" fill="black"/>
<path fill-rule="evenodd" clip-rule="evenodd" d="M215.903 139.392C215.904 139.391 215.911 139.404 215.922 139.432C215.907 139.406 215.901 139.392 215.903 139.392ZM215.929 139.452C215.781 139.31 215.22 138.889 213.687 138.511C211.417 137.95 207.88 137.737 203.063 138.357C193.472 139.592 180.968 143.849 168.199 151.219C155.43 158.589 145.695 167.169 140.128 174.684C137.331 178.458 135.902 181.537 135.383 183.709C135.032 185.175 135.167 185.84 135.232 186.031C135.38 186.172 135.94 186.593 137.473 186.972C139.743 187.533 143.281 187.745 148.098 187.125C157.689 185.89 170.193 181.633 182.962 174.263C195.731 166.893 205.465 158.313 211.033 150.798C213.829 147.024 215.258 143.945 215.778 141.774C216.129 140.308 215.993 139.642 215.929 139.452ZM135.188 185.981C135.189 185.98 135.199 185.991 135.216 186.015C135.195 185.994 135.187 185.982 135.188 185.981ZM135.258 186.09C135.257 186.091 135.249 186.078 135.239 186.051C135.254 186.076 135.259 186.09 135.258 186.09ZM215.944 139.467C215.966 139.489 215.974 139.501 215.973 139.501C215.972 139.502 215.961 139.491 215.944 139.467ZM188.761 183.315C216.19 167.483 232.524 145.437 225.245 134.074C217.965 122.712 189.828 126.335 162.399 142.167C134.97 157.999 118.636 180.045 125.916 191.408C133.195 202.771 161.332 199.148 188.761 183.315Z" fill="black"/>
<path fill-rule="evenodd" clip-rule="evenodd" d="M301.15 61.5417L284.139 77.6667L276.337 70.27L293.347 54.145L301.15 61.5417Z" fill="black"/>
<path fill-rule="evenodd" clip-rule="evenodd" d="M233.108 77.6666L216.098 61.5417L223.901 54.145L240.911 70.27L233.108 77.6666Z" fill="black"/>
<path d="M310.6 52.5833C310.6 57.5309 306.369 61.5417 301.15 61.5417C295.93 61.5417 291.699 57.5309 291.699 52.5833C291.699 47.6358 295.93 43.625 301.15 43.625C306.369 43.625 310.6 47.6358 310.6 52.5833Z" fill="black"/>
<path fill-rule="evenodd" clip-rule="evenodd" d="M300.433 51.117C300.159 51.3776 299.847 51.8982 299.847 52.5833C299.847 53.2685 300.159 53.789 300.433 54.0496C300.698 54.3008 300.975 54.375 301.15 54.375C301.324 54.375 301.601 54.3008 301.866 54.0496C302.141 53.789 302.452 53.2685 302.452 52.5833C302.452 51.8982 302.141 51.3776 301.866 51.117C301.601 50.8659 301.324 50.7917 301.15 50.7917C300.975 50.7917 300.698 50.8659 300.433 51.117ZM301.15 61.5417C306.369 61.5417 310.6 57.5309 310.6 52.5833C310.6 47.6358 306.369 43.625 301.15 43.625C295.93 43.625 291.699 47.6358 291.699 52.5833C291.699 57.5309 295.93 61.5417 301.15 61.5417Z" fill="black"/>
<path d="M225.548 52.5833C225.548 57.5309 221.317 61.5417 216.098 61.5417C210.879 61.5417 206.648 57.5309 206.648 52.5833C206.648 47.6358 210.879 43.625 216.098 43.625C221.317 43.625 225.548 47.6358 225.548 52.5833Z" fill="black"/>
<path fill-rule="evenodd" clip-rule="evenodd" d="M215.382 51.117C215.107 51.3776 214.796 51.8982 214.796 52.5833C214.796 53.2685 215.107 53.789 215.382 54.0496C215.647 54.3008 215.924 54.375 216.098 54.375C216.272 54.375 216.549 54.3008 216.814 54.0496C217.089 53.789 217.401 53.2685 217.401 52.5833C217.401 51.8982 217.089 51.3776 216.814 51.117C216.549 50.8659 216.272 50.7917 216.098 50.7917C215.924 50.7917 215.647 50.8659 215.382 51.117ZM216.098 61.5417C221.317 61.5417 225.548 57.5309 225.548 52.5833C225.548 47.6358 221.317 43.625 216.098 43.625C210.879 43.625 206.648 47.6358 206.648 52.5833C206.648 57.5309 210.879 61.5417 216.098 61.5417Z" fill="black"/>
<path fill-rule="evenodd" clip-rule="evenodd" d="M280.009 158.874C283.32 156.902 286.57 153.283 286.57 143.01C286.57 132.715 283.29 128.796 279.827 126.64C275.257 123.793 267.821 122.458 257 122.458C246.179 122.458 238.743 123.793 234.173 126.64C230.71 128.796 227.43 132.715 227.43 143.01C227.43 153.283 230.68 156.902 233.991 158.874C238.561 161.596 246.001 162.771 257 162.771C267.999 162.771 275.439 161.596 280.009 158.874ZM257 173.521C279.27 173.521 297.323 169.261 297.323 143.01C297.323 116.759 279.27 111.708 257 111.708C234.731 111.708 216.678 116.759 216.678 143.01C216.678 169.261 234.731 173.521 257 173.521Z" fill="black"/>
<path fill-rule="evenodd" clip-rule="evenodd" d="M257 258.625C273.527 258.625 290.154 241.729 290.154 216.521C290.154 191.312 273.527 174.417 257 174.417C240.472 174.417 223.846 191.312 223.846 216.521C223.846 241.729 240.472 258.625 257 258.625ZM257 269.375C281.249 269.375 300.907 245.711 300.907 216.521C300.907 187.33 281.249 163.667 257 163.667C232.751 163.667 213.093 187.33 213.093 216.521C213.093 245.711 232.751 269.375 257 269.375Z" fill="black"/>
<path fill-rule="evenodd" clip-rule="evenodd" d="M303.156 197.905C300.225 196.164 295.807 194.338 289.054 192.16L291.254 185.34C298.138 187.56 303.177 189.582 306.817 191.744C310.536 193.953 312.994 196.427 314.424 199.587C315.79 202.605 316.033 205.883 316.13 209.177C316.156 210.072 316.171 210.982 316.187 211.921C316.227 214.272 316.27 216.804 316.495 219.745L330.59 234.665C331.949 236.103 331.884 238.371 330.445 239.73C329.006 241.089 326.737 241.024 325.378 239.586L309.571 222.852L309.458 221.618C309.116 217.857 309.061 214.571 309.015 211.853C309 210.97 308.987 210.147 308.964 209.387C308.869 206.139 308.617 204.14 307.893 202.541C307.233 201.083 306.007 199.599 303.156 197.905Z" fill="black"/>
<path fill-rule="evenodd" clip-rule="evenodd" d="M301.494 114.619C298.396 116.04 294.382 118.636 288.751 122.952L284.389 117.265C290.128 112.866 294.657 109.87 298.505 108.105C302.437 106.301 305.87 105.686 309.284 106.306C312.543 106.898 315.379 108.562 318.145 110.354C318.897 110.842 319.654 111.346 320.436 111.867C322.393 113.171 324.502 114.575 327.049 116.061L347.34 112.949C349.296 112.649 351.126 113.991 351.426 115.947C351.726 117.903 350.383 119.732 348.427 120.032L325.671 123.523L324.591 122.913C321.301 121.057 318.566 119.234 316.303 117.727C315.568 117.238 314.883 116.781 314.245 116.368C311.518 114.6 309.73 113.671 308.002 113.357C306.428 113.071 304.509 113.236 301.494 114.619Z" fill="black"/>
<path fill-rule="evenodd" clip-rule="evenodd" d="M296.591 178.516C291.488 176.389 285.307 173.813 277.939 170.522L280.864 163.978C288.152 167.234 294.162 169.739 299.231 171.851C301.566 172.825 303.701 173.715 305.67 174.557C311.767 177.164 316.428 179.369 319.867 182.138C327.021 187.896 328.3 195.662 330.029 210.074L352.76 232.8C354.16 234.199 354.16 236.468 352.76 237.867C351.36 239.267 349.091 239.267 347.691 237.867L323.205 213.387L323.059 212.154C321.152 196.133 320.027 191.467 315.372 187.72C312.806 185.655 309.027 183.787 302.851 181.146C300.976 180.344 298.893 179.476 296.591 178.516Z" fill="black"/>
<path fill-rule="evenodd" clip-rule="evenodd" d="M212.72 197.901C215.633 196.162 220.026 194.336 226.743 192.159L224.532 185.341C217.684 187.561 212.668 189.584 209.045 191.748C205.341 193.959 202.896 196.434 201.474 199.593C200.116 202.609 199.875 205.884 199.778 209.177C199.752 210.072 199.737 210.982 199.721 211.921C199.681 214.273 199.638 216.807 199.414 219.75L185.391 234.671C184.036 236.114 184.107 238.381 185.549 239.736C186.992 241.092 189.26 241.021 190.616 239.579L206.341 222.846L206.452 221.616C206.792 217.855 206.847 214.57 206.893 211.853C206.908 210.97 206.921 210.147 206.944 209.387C207.039 206.138 207.289 204.136 208.011 202.534C208.667 201.075 209.887 199.592 212.72 197.901Z" fill="black"/>
<path fill-rule="evenodd" clip-rule="evenodd" d="M216.292 116.355C219.179 118.138 222.824 121.194 227.853 126.151L232.885 121.047C227.758 115.994 223.651 112.476 220.06 110.258C216.39 107.991 213.066 106.963 209.607 107.157C206.305 107.342 203.286 108.637 200.318 110.069C199.511 110.459 198.697 110.864 197.856 111.283C195.75 112.332 193.48 113.462 190.765 114.619L171.057 109.055C169.152 108.517 167.171 109.624 166.633 111.529C166.095 113.433 167.203 115.413 169.108 115.951L191.208 122.192L192.352 121.723C195.847 120.292 198.788 118.827 201.222 117.615C202.012 117.221 202.749 116.854 203.434 116.524C206.362 115.111 208.254 114.411 210.009 114.312C211.607 114.222 213.485 114.621 216.292 116.355Z" fill="black"/>
<path fill-rule="evenodd" clip-rule="evenodd" d="M219.46 178.51C224.496 176.383 230.597 173.806 237.869 170.514L234.912 163.986C227.72 167.241 221.792 169.745 216.79 171.857C214.485 172.831 212.377 173.721 210.433 174.563C204.416 177.171 199.809 179.379 196.41 182.152C189.346 187.915 188.087 195.676 186.38 210.09L163.947 232.816C162.557 234.225 162.572 236.494 163.981 237.884C165.39 239.274 167.659 239.259 169.049 237.85L193.212 213.372L193.355 212.149C195.238 196.124 196.351 191.45 200.941 187.705C203.468 185.645 207.19 183.78 213.284 181.139C215.133 180.338 217.188 179.47 219.46 178.51Z" fill="black"/>
<path d="M225.638 231.75H288.362V246.083H225.638V231.75Z" fill="black"/>
<path d="M220.262 210.25H290.154V224.583H220.262V210.25Z" fill="black"/>
<path d="M220.262 188.75H290.154V203.083H220.262V188.75Z" fill="black"/>
<path d="M247.143 91.1042C247.143 96.5465 244.335 100.958 240.871 100.958C237.407 100.958 234.599 96.5465 234.599 91.1042C234.599 85.6619 237.407 81.25 240.871 81.25C244.335 81.25 247.143 85.6619 247.143 91.1042Z" fill="black"/>
<path d="M281.194 91.1042C281.194 96.5465 278.385 100.958 274.921 100.958C271.457 100.958 268.649 96.5465 268.649 91.1042C268.649 85.6619 271.457 81.25 274.921 81.25C278.385 81.25 281.194 85.6619 281.194 91.1042Z" fill="black"/>
<path fill-rule="evenodd" clip-rule="evenodd" d="M216.677 140.375L130.656 190.542L128.85 187.447L214.871 137.28L216.677 140.375Z" fill="black"/>
<path fill-rule="evenodd" clip-rule="evenodd" d="M300.907 136.792L387.564 185.852L385.798 188.971L299.141 139.91L300.907 136.792Z" fill="black"/>
<path fill-rule="evenodd" clip-rule="evenodd" d="M319.604 147.798C323.532 140.998 321.555 132.82 315.635 129.403L317.427 126.3C325.31 130.85 327.475 141.335 322.708 149.59C317.942 157.844 307.776 161.212 299.893 156.662L301.685 153.559C307.605 156.976 315.677 154.599 319.604 147.798Z" fill="black"/>
<path fill-rule="evenodd" clip-rule="evenodd" d="M197.427 151.364C201.354 158.164 209.426 160.541 215.346 157.124L217.139 160.227C209.255 164.778 199.09 161.41 194.323 153.155C189.556 144.901 191.721 134.415 199.604 129.865L201.397 132.968C195.476 136.385 193.499 144.563 197.427 151.364Z" fill="black"/>
<path fill-rule="evenodd" clip-rule="evenodd" d="M172.337 163.905C176.264 170.705 184.337 173.083 190.257 169.666L192.049 172.769C184.166 177.319 174 173.951 169.233 165.697C164.466 157.442 166.631 146.957 174.515 142.407L176.307 145.51C170.387 148.927 168.41 157.105 172.337 163.905Z" fill="black"/>
<path fill-rule="evenodd" clip-rule="evenodd" d="M150.832 178.239C154.759 185.039 162.831 187.416 168.751 183.999L170.544 187.102C162.66 191.653 152.495 188.285 147.728 180.03C142.961 171.776 145.126 161.29 153.009 156.74L154.802 159.843C148.881 163.26 146.905 171.438 150.832 178.239Z" fill="black"/>
<path fill-rule="evenodd" clip-rule="evenodd" d="M344.694 163.923C348.621 157.123 346.644 148.945 340.724 145.528L342.516 142.425C350.4 146.975 352.565 157.46 347.798 165.715C343.031 173.969 332.865 177.337 324.982 172.787L326.774 169.684C332.695 173.101 340.767 170.724 344.694 163.923Z" fill="black"/>
<path fill-rule="evenodd" clip-rule="evenodd" d="M367.992 176.465C371.919 169.665 369.942 161.487 364.022 158.07L365.814 154.966C373.697 159.517 375.863 170.002 371.096 178.257C366.329 186.511 356.163 189.879 348.28 185.329L350.072 182.225C355.992 185.643 364.064 183.265 367.992 176.465Z" fill="black"/>
<path fill-rule="evenodd" clip-rule="evenodd" d="M382.477 185.311C382.478 185.312 382.471 185.325 382.452 185.348C382.467 185.322 382.476 185.311 382.477 185.311ZM382.439 185.364C382.487 185.165 382.571 184.469 382.133 182.953C381.484 180.707 379.899 177.538 376.953 173.677C371.088 165.991 361.149 157.293 348.38 149.922C335.611 142.552 323.312 138.414 314.018 137.351C309.35 136.816 305.969 137.119 303.828 137.755C302.383 138.184 301.874 138.634 301.741 138.785C301.693 138.984 301.609 139.68 302.047 141.196C302.696 143.442 304.281 146.611 307.227 150.472C313.092 158.158 323.031 166.856 335.8 174.226C348.569 181.597 360.868 185.735 370.161 186.798C374.829 187.332 378.211 187.03 380.352 186.394C381.797 185.965 382.306 185.515 382.439 185.364ZM301.762 138.722C301.763 138.723 301.759 138.737 301.747 138.764C301.755 138.735 301.761 138.721 301.762 138.722ZM301.703 138.838C301.701 138.837 301.709 138.824 301.727 138.801C301.713 138.827 301.704 138.838 301.703 138.838ZM382.433 185.385C382.425 185.414 382.419 185.427 382.417 185.427C382.416 185.426 382.42 185.412 382.433 185.385ZM330.858 183.774C358.287 199.606 385.551 202.725 391.754 190.741C397.958 178.757 380.751 156.207 353.322 140.375C325.893 124.543 298.629 121.424 292.425 133.408C286.222 145.392 303.429 167.942 330.858 183.774Z" fill="black"/>
</svg>
